<svg width="32" height="32" viewBox="0 0 32 32" fill="none" xmlns="http://www.w3.org/2000/svg">
<rect y="32" width="32" height="32" rx="16" transform="rotate(-90 0 32)" fill="#301130"/>
<path d="M12.3824 23.6478C12.1375 23.4222 12 23.1163 12 22.7974C12 22.4784 12.1375 22.1725 12.3824 21.947L18.8474 15.9927L12.3824 10.0385C12.1445 9.81166 12.0128 9.50781 12.0158 9.19242C12.0188 8.87703 12.1562 8.57534 12.3983 8.35231C12.6405 8.12929 12.968 8.00279 13.3105 8.00005C13.6529 7.99731 13.9828 8.11855 14.2292 8.33766L21.6176 15.1423C21.8625 15.3679 22 15.6738 22 15.9927C22 16.3117 21.8625 16.6176 21.6176 16.8432L14.2292 23.6478C13.9843 23.8733 13.6521 24 13.3058 24C12.9595 24 12.6273 23.8733 12.3824 23.6478Z" fill="#f6c7fa"/>
</svg>
