<svg width="32" height="32" viewBox="0 0 32 32" fill="none" xmlns="http://www.w3.org/2000/svg">
              <rect width="32" height="32" rx="16" fill="#FF8412"></rect>
              <path fill-rule="evenodd" clip-rule="evenodd" d="M16.2052 8.03639C16.0724 7.98787 15.9275 7.98787 15.7947 8.03639L8.77935 10.5999C8.53354 10.6897 8.36922 10.9298 8.36922 11.1991V13.2119C8.36922 13.5629 8.64473 13.8475 8.9846 13.8475H9.47694V20.4407H9.35385C9.19064 20.4407 9.03411 20.5076 8.9187 20.6268L8.18024 21.3896C8.06483 21.5087 8 21.6704 8 21.839V23.3644C8 23.7154 8.27552 24 8.61538 24H23.3846C23.7245 24 24 23.7154 24 23.3644V21.839C24 21.6704 23.9352 21.5087 23.8198 21.3896L23.0813 20.6268C22.9659 20.5076 22.8094 20.4407 22.6462 20.4407H22.5231V13.8475H23.0154C23.3552 13.8475 23.6308 13.5629 23.6308 13.2119V11.1991C23.6308 10.9298 23.4664 10.6897 23.2206 10.5999L16.2052 8.03639ZM10.0923 21.7119L10.0893 21.7119H9.60875L9.23077 22.1023V22.7288H22.7692V22.1023L22.3913 21.7119H21.9107L21.9077 21.7119L21.9047 21.7119H18.9568L18.9538 21.7119L18.9508 21.7119H16.003L16 21.7119L15.997 21.7119H13.0492L13.0462 21.7119L13.0432 21.7119H10.0953L10.0923 21.7119ZM21.2923 13.8475V20.4407H19.5692V13.8475H21.2923ZM18.3384 13.8475V20.4407H16.6154V13.8475H18.3384ZM15.3846 13.8475V20.4407H13.6616V13.8475H15.3846ZM12.4308 13.8475V20.4407H10.7077V13.8475H12.4308ZM9.59999 12.5763V11.6484L16 9.30979L22.4 11.6484V12.5763H9.59999ZM16 11.6864C16.3399 11.6864 16.6154 11.4019 16.6154 11.0508C16.6154 10.6998 16.3399 10.4153 16 10.4153C15.6601 10.4153 15.3846 10.6998 15.3846 11.0508C15.3846 11.4019 15.6601 11.6864 16 11.6864Z" fill="white"></path>
            </svg>