<svg width="32" height="32" viewBox="0 0 32 32" fill="none" xmlns="http://www.w3.org/2000/svg">
              <rect width="32" height="32" rx="16" fill="#F7931A"></rect>
              <path d="M23.9582 13.2464C24.2911 10.8297 22.5967 9.53049 20.2799 8.6638L21.0314 5.39L19.1964 4.89337L18.4648 8.08089C17.9824 7.95035 17.4869 7.82718 16.9946 7.70516L17.7315 4.49663L15.8976 4L15.1455 7.27266C14.7462 7.1739 14.3542 7.07628 13.9737 6.97355L13.9758 6.96333L11.4452 6.27713L10.9571 8.40555C10.9571 8.40555 12.3185 8.74439 12.2898 8.76539C13.033 8.96688 13.1673 9.50097 13.1448 9.92439L12.2888 13.6539C12.34 13.6681 12.4063 13.6886 12.4795 13.7204C12.4184 13.7039 12.353 13.6857 12.2856 13.6681L11.0856 18.8927C10.9947 19.1379 10.7642 19.5057 10.2447 19.3661C10.263 19.395 8.91096 19.0045 8.91096 19.0045L8 21.2856L10.3879 21.9321C10.8322 22.053 11.2675 22.1796 11.6961 22.2987L10.9367 25.61L12.7696 26.1066L13.5217 22.8306C14.0223 22.9781 14.5084 23.1144 14.984 23.2426L14.2345 26.5034L16.0695 27L16.8289 23.695C19.9579 24.3381 22.3108 24.0787 23.3012 21.0052C24.0993 18.5306 23.2615 17.1031 21.6152 16.1723C22.8141 15.872 23.7172 15.0156 23.9582 13.2464ZM19.7656 19.6311C19.1985 22.1058 15.3619 20.768 14.118 20.4325L15.1256 16.0457C16.3695 16.3829 20.3583 17.0503 19.7656 19.6311ZM20.3332 13.2107C19.8158 15.4617 16.6225 14.318 15.5866 14.0376L16.5002 10.0589C17.536 10.3393 20.872 10.8626 20.3332 13.2107Z" fill="white"></path>
            </svg>