<svg width="32" height="32" viewBox="0 0 32 32" fill="none" xmlns="http://www.w3.org/2000/svg">
              <rect width="32" height="32" rx="16" fill="white"></rect>
              <path d="M29.9995 15.6333L28.6952 13.0039L27.2969 18.2627L29.9995 15.6333Z" fill="#23A33E"></path>
              <path d="M29.0984 15.6333L27.7941 13.0039L26.3945 18.2627L29.0984 15.6333Z" fill="#FF681D"></path>
              <path d="M19.4324 13.5081L18.8608 15.6563C18.8189 15.811 18.7274 15.9477 18.6003 16.0454C18.4733 16.1431 18.3177 16.1965 18.1574 16.1973H13.3114L12.763 18.2588H11.7604L12.5859 15.1531H17.9913L18.2868 14.0442H12.8815L13.1551 13.0037H19.0355C19.0975 13.0029 19.1589 13.0164 19.2149 13.0431C19.2709 13.0698 19.32 13.1091 19.3584 13.1579C19.3968 13.2067 19.4234 13.2636 19.4363 13.3243C19.4491 13.3851 19.4478 13.4479 19.4324 13.5081ZM3.39957 13L2 18.2588H3.00266L4.40223 13H3.39957ZM26.3679 14.0442L26.6452 13H20.9394C20.7724 12.999 20.6098 13.0536 20.4772 13.155C20.3446 13.2565 20.2494 13.3992 20.2067 13.5606L19.6388 15.6929C19.6261 15.7415 19.6247 15.7923 19.6347 15.8415C19.6447 15.8907 19.6659 15.9369 19.6965 15.9766C19.7272 16.0164 19.7665 16.0486 19.8116 16.0707C19.8566 16.0929 19.9061 16.1044 19.9563 16.1045H24.8133L24.5177 17.2146H19.2382L18.961 18.2588H24.6863C24.8468 18.2582 25.0026 18.205 25.1299 18.1072C25.2572 18.0095 25.3489 17.8727 25.3909 17.7178L25.9625 15.5696C25.9784 15.5095 25.9803 15.4467 25.968 15.3858C25.9558 15.3249 25.9297 15.2676 25.8918 15.2184C25.854 15.1692 25.8053 15.1294 25.7496 15.102C25.6938 15.0745 25.6326 15.0603 25.5705 15.0603H20.937L21.2069 14.0442H26.3679ZM12.1341 13.105L7.78148 16.7786L5.51114 13.0501L4.12501 18.2625H5.12767L5.86043 15.4938L7.53967 18.2502L10.4011 15.8346L9.75505 18.2625H10.7614L12.1341 13.105Z" fill="#1C263A"></path>
            </svg>