<svg width="32" height="32" viewBox="0 0 32 32" fill="none" xmlns="http://www.w3.org/2000/svg">
              <rect width="32" height="32" rx="16" fill="white"></rect>
              <path d="M18.894 10.4814H12.5547V21.3723H18.894V10.4814Z" fill="#FF5F00"></path>
              <path d="M12.9555 15.927C12.9555 13.7142 14.0423 11.7516 15.7126 10.4816C14.485 9.55801 12.9354 9 11.2449 9C7.24009 9 4 12.0979 4 15.927C4 19.7562 7.24009 22.8541 11.2449 22.8541C12.9354 22.8541 14.485 22.2961 15.7126 21.3725C14.0423 20.1217 12.9555 18.1398 12.9555 15.927Z" fill="#EB001B"></path>
              <path d="M27.447 15.927C27.447 19.7562 24.2069 22.8541 20.2021 22.8541C18.5116 22.8541 16.962 22.2961 15.7344 21.3725C17.4249 20.1025 18.4915 18.1398 18.4915 15.927C18.4915 13.7142 17.4047 11.7516 15.7344 10.4816C16.962 9.55801 18.5116 9 20.2021 9C24.2069 9 27.447 12.1172 27.447 15.927Z" fill="#F79E1B"></path>
            </svg>