<svg width="32" height="32" viewBox="0 0 32 32" fill="none" xmlns="http://www.w3.org/2000/svg">
              <rect width="32" height="32" rx="16" fill="#1A1F71"></rect>
              <path d="M10.8636 20.153L12.2669 11.9183H14.5115L13.1072 20.153H10.8636ZM21.2162 12.0959C20.7716 11.929 20.0747 11.75 19.2046 11.75C16.9867 11.75 15.4244 12.8668 15.4112 14.4675C15.3986 15.6508 16.5265 16.3109 17.3778 16.7048C18.2515 17.1084 18.5452 17.3658 18.5411 17.7263C18.5356 18.2782 17.8434 18.5304 17.1983 18.5304C16.2999 18.5304 15.8226 18.4056 15.0855 18.0981L14.7962 17.9673L14.4812 19.8107C15.0055 20.0406 15.9749 20.2397 16.9815 20.25C19.3409 20.25 20.8725 19.146 20.89 17.4366C20.8984 16.4999 20.3004 15.787 19.0054 15.1992C18.2209 14.8184 17.7404 14.5641 17.7455 14.1784C17.7455 13.8361 18.1522 13.4701 19.0309 13.4701C19.7649 13.4587 20.2967 13.6188 20.7109 13.7856L20.912 13.8806L21.2162 12.0959ZM26.9922 11.9182H25.2578C24.7205 11.9182 24.3184 12.0649 24.0824 12.6011L20.749 20.1476H23.106C23.106 20.1476 23.4913 19.1328 23.5784 18.9101C23.8361 18.9101 26.1257 18.9136 26.4531 18.9136C26.5202 19.2019 26.7261 20.1476 26.7261 20.1476H28.8089L26.9922 11.918V11.9182ZM24.2404 17.2357C24.426 16.7612 25.1347 14.9337 25.1347 14.9337C25.1214 14.9557 25.3189 14.457 25.4322 14.1478L25.5839 14.8578C25.5839 14.8578 26.0138 16.8235 26.1036 17.2357H24.2404ZM8.95814 11.9182L6.76067 17.5339L6.52649 16.3927C6.11741 15.0772 4.84284 13.6519 3.41797 12.9384L5.42725 20.1399L7.80207 20.1372L11.3357 11.9181H8.95814" fill="white"></path>
              <path d="M4.71046 11.9181H1.09115L1.0625 12.0895C3.87825 12.7711 5.74139 14.4183 6.51497 16.3973L5.72793 12.6132C5.59206 12.0918 5.19804 11.9362 4.71055 11.918" fill="#F2AE14"></path>
            </svg>